<svg xmlns="http://www.w3.org/2000/svg" xmlns:xlink="http://www.w3.org/1999/xlink" aria-hidden="true" role="img" class="iconify iconify--logos" width="31.88" height="32" preserveAspectRatio="xMidYMid meet" viewBox="0 0 256 257"><defs><linearGradient id="IconifyId1813088fe1fbc0cfb466" x1="236.64" x2="33.42" y1="237.38" y2="34.16" gradientUnits="userSpaceOnUse"><stop offset="0" stop-color="#41d1ff"/><stop offset="1" stop-color="#bd34fe"/></linearGradient><linearGradient id="IconifyId1813088fe1fbc0cfb467" x1="229.63" x2="100.22" y1="200.5" y2="71.09" gradientUnits="userSpaceOnUse"><stop offset="0" stop-color="#ffea83"/><stop offset="0.08" stop-color="#ffe271"/><stop offset="0.31" stop-color="#f8c54d"/><stop offset="0.5" stop-color="#f2b236"/><stop offset="0.67" stop-color="#f0a82b"/><stop offset="0.82" stop-color="#f0a427"/><stop offset="1" stop-color="#f0a326"/></linearGradient></defs><path fill="url(#IconifyId1813088fe1fbc0cfb466)" d="M255.15 128.53a127.58 127.58 0 1 1-222.1 94.83a127.58 127.58 0 0 1 222.1-94.83Z"/><path fill="url(#IconifyId1813088fe1fbc0cfb467)" d="m183.33 10.79l-54.84 95a15.76 15.76 0 0 1-13.65 7.88a15.77 15.77 0 0 1-13.66-7.88l-54.83-95a15.77 15.77 0 0 1 13.65-23.65h109.68a15.77 15.77 0 0 1 13.65 23.65Z"/><path fill="#35495e" d="M128.49 113.67a15.77 15.77 0 0 1-13.66-7.88L60 10.88a15.77 15.77 0 0 0-13.66 7.87l54.84 95a15.77 15.77 0 0 0 27.31 0l54.84-95a15.77 15.77 0 0 0-13.66-7.87l-41.18 71.32Z"/></svg>